PathFileType	4	(X/Y/Z)	C:/Users/beibeiliu/ov580/test_trc/capture2\sequence.15_training_dense_right.trc
DataRate	CameraRate	NumFrames	NumMarkers	Units	OrigDataRate	OrigDataStartFrame	OrigNumFrames
120	120	20	19	mm	120	230	367
Frame#	Time	ThumbCMC			ThumbMCP			ThumbIP			ThumbTip			IndexMCP			IndexPIP			IndexTip			MiddleMCP			MiddlePIP			MiddleTip			RingMCP			RingPIP			RingTip			PinkyMCP			PinkyPIP			PinkyTip			BackHand1			BackHand2			BackHand3	
		X0	Y0	Z0	X1	Y1	Z1	X2	Y2	Z2	X3	Y3	Z3	X4	Y4	Z4	X5	Y5	Z5	X6	Y6	Z6	X7	Y7	Z7	X8	Y8	Z8	X9	Y9	Z9	X10	Y10	Z10	X11	Y11	Z11	X12	Y12	Z12	X13	Y13	Z13	X14	Y14	Z14	X15	Y15	Z15	X16	Y16	Z16	X17	Y17	Z17	X18	Y18	Z18	
229	1.90833	154.979	112.93	-34.8717	129.448	122.385	-39.8483	105.729	126.294	-55.8448	87.4864	129.142	-65.128	103.568	83.8192	-76.1124	85.0078	89.2024	-52.3474	117.24	90.634	-32.7147	102.818	67.2102	-68.6857	89.153	76.2422	-37.9105	122.692	84.4783	-28.7644	99.3108	51.8111	-57.7186	94.5507	64.5662	-29.9043	124.218	70.4979	-22.1723	110.53	24.0153	-55.9151	84.2845	32.1573	-51.963	68.451	50.5896	-34.5841	157.579	44.8468	-53.3474	182.659	56.7811	-30.0548	170.954	82.2672	-53.2489	
230	1.91667	157.178	109.294	-37.4669	130.876	122.75	-43.9904	110.052	129.117	-56.4992	89.1212	130.804	-70.4836	105.834	89.708	-77.7892	87.9654	94.3012	-54.6793	115.285	98.0608	-34.7053	102.796	68.0698	-68.4512	89.9523	84.3057	-40.6698	120.839	89.6902	-28.8989	102.229	56.7085	-59.0468	95.5705	70.0189	-30.6513	128.121	75.9495	-26.9359	109.162	28.8981	-56.914	82.1139	31.6495	-52.3728	64.4012	45.8969	-42.0492	159.668	45.6641	-50.5537	182.423	52.5327	-29.3856	172.093	82.6486	-52.011	
231	1.925	161.934	115.285	-38.8231	135.785	129.262	-47.6156	116.507	137.777	-60.5904	96.0894	137.648	-73.7586	108.33	97.1117	-79.9399	92.7974	106.406	-52.8025	121.964	101.134	-36.9888	102.431	73.6828	-68.633	92.5178	90.5254	-41.9687	123.928	91.6247	-29.7192	101.548	62.8137	-59.6722	94.3597	76.8612	-35.1726	126.526	78.5283	-25.4642	109.234	30.7185	-55.5431	80.0973	34.8739	-54.5883	57.8964	46.3215	-52.3487	157.701	48.9994	-53.3365	179.181	52.5799	-33.8342	171.992	79.2028	-54.6453	
232	1.93333	167.722	113.514	-38.323	143.582	130.463	-47.6016	122.942	141.623	-66.6094	105.709	149.607	-78.7305	109.93	102.787	-82.2775	98.0899	112.295	-56.8636	124.973	107.096	-40.1813	101.984	83.1359	-72.6581	93.5301	97.7222	-48.512	131.582	95.9578	-34.428	98.9754	68.3698	-61.8366	99.4341	87.7584	-37.2837	131.062	86.4506	-31.4439	105.978	40.0823	-61.8458	79.4881	43.1961	-62.5507	59.169	48.9248	-61.3861	153.814	49.6093	-57.1824	179.36	52.2245	-31.324	176.505	84.641	-55.7342	
233	1.94167	174.76	114.813	-41.1093	156.153	136.84	-53.0762	138.316	149.212	-72.6254	125.927	160.724	-83.7422	122.617	111.133	-87.9569	106.283	123.467	-62.3417	129.668	114.241	-45.7278	111.507	95.2854	-82.8134	100.558	110.112	-56.6417	135.162	104.959	-39.7274	104.236	79.257	-70.1763	99.6743	94.1285	-44.3444	133.933	89.8322	-34.4066	106.714	48.7709	-65.1685	78.9273	51.9036	-69.2574	58.3652	53.1196	-71.2677	157.067	52.8491	-58.1635	176.266	53.8389	-38.3135	178.305	80.6473	-56.7399	
234	1.95	180.438	113.967	-40.9169	164.277	136.02	-56.6402	152.276	152.944	-75.7964	140.588	162.305	-90.3365	127.118	116.181	-93.1809	113.988	128.772	-69.5649	139.906	120.663	-50.1578	118.355	98.9289	-87.748	106.198	117.813	-64.9852	138.376	108.227	-44.4694	109.634	87.387	-78.364	102.622	103.342	-52.717	137.908	96.5534	-40.7376	104.212	55.4924	-71.6894	85.9848	63.0048	-78.626	63.7345	64.3514	-85.3161	156.309	55.2328	-63.8675	174.154	53.3396	-39.2886	179.805	80.2306	-58.4477	
235	1.95833	183.238	112.94	-45.0168	172.661	136.095	-55.7291	163.321	154.301	-77.7076	156.006	167.29	-91.3165	139.389	120.77	-96.4814	123.645	136.12	-74.795	139.864	119.258	-54.0178	124.624	103.903	-93.1984	113.351	121.85	-67.4608	138.74	110.992	-47.8671	115.09	88.9043	-83.2433	105.52	106.785	-59.5476	135.023	99.1098	-43.2142	109.961	62.9024	-80.1878	84.1698	68.0939	-85.4015	66.9713	70.4496	-92.9498	159.698	58.4055	-66.0074	173.167	52.7157	-40.5035	183.485	78.8239	-60.7267	
236	1.96667	188.237	110.192	-44.4521	179.675	133.456	-54.8029	171.232	149.648	-78.7508	164.787	163.742	-96.3615	146.472	117.136	-100.388	131.887	136.607	-81.7356	150.551	122.115	-56.5318	131.557	103.517	-97.1212	119.475	123.57	-76.3991	145.324	107.379	-51.012	117.718	91.9032	-88.5498	109.849	109.164	-65.8907	136.951	101.791	-47.676	111.448	65.6315	-88.8264	93.5798	73.8644	-94.7339	72.0113	77.2649	-107.909	156.542	54.2607	-66.9532	173.056	50.9317	-37.5688	184.763	76.2935	-60.5044	
237	1.975	192.986	106.903	-44.2771	187.224	131.879	-57.3776	182.461	146.607	-79.0081	177.305	159.884	-96.1788	156.362	113.739	-103.491	137.546	131.772	-88.0679	154.032	116.279	-58.5042	137.108	103.871	-101.304	126.342	122.277	-77.61	150.439	106.981	-53.4875	123.951	93.3206	-94.337	117.933	111.284	-73.7271	139.398	100.494	-49.9636	116.781	64.9032	-91.7776	96.7279	72.1151	-101.027	80.7816	79.3593	-114.915	163	53.8004	-69.9106	174.331	48.6528	-40.5582	190.491	71.1283	-58.2047	
238	1.98333	196.32	100.873	-40.4693	190.741	124.738	-58.2249	193.312	143.93	-78.8951	190.646	156.4	-95.2825	163.001	109.893	-105.484	149.199	133.086	-92.2212	158.713	117.725	-62.5556	145.71	99.8482	-103.766	133.135	119.426	-79.3275	153.227	106.873	-56.2639	132.309	89.9549	-98.6907	122.439	109.875	-78.0884	147.151	96.5015	-53.5088	120.121	62.1768	-94.8661	107.78	71.7127	-106.647	91.0073	76.1586	-124.633	166.057	50.1176	-68.0213	170.873	44.1877	-37.3453	193.175	67.3817	-58.7667	
239	1.99167	201.114	99.1345	-44.5908	196.565	119.034	-58.2438	200.259	137.663	-78.4599	200.521	151.208	-100.538	176.006	107.497	-107.017	157.209	128.466	-95.2424	165.419	115.418	-63.8651	153.938	96.0345	-105.95	139.525	117.166	-87.2437	162.019	105.569	-58.6144	137.108	88.1541	-102.562	130.879	108.581	-80.8784	151.565	94.885	-56.1538	127.987	58.8723	-96.2515	116.554	69.7261	-111.427	97.3371	72.6527	-131.358	167.389	49.5605	-71.0216	174.469	43.5419	-40.5905	195.426	62.4989	-55.0964	
240	2	202.933	91.0924	-43.4341	205.869	116.955	-60.5327	208.32	130.643	-79.3742	211.825	145.017	-96.7478	179.86	101.747	-109.656	163.618	122.909	-94.0633	171.626	111.904	-66.9237	160.385	92.4202	-107.975	150.528	114.43	-90.8348	170.415	101.052	-59.5864	147.21	83.0665	-104.456	140.659	106.191	-85.5267	156.681	97.1308	-61.0275	133.354	54.9788	-103.519	125.444	64.6392	-116.97	110.887	69.7477	-135.589	170.089	41.7395	-67.7921	175.274	35.3694	-36.5253	199.846	56.0859	-57.0311	
241	2.00833	209.449	86.9913	-43.9473	211.418	112.232	-62.3369	216.009	124.723	-82.8738	219.749	137.248	-102.456	190.689	95.5516	-109.071	173.457	117.813	-99.4701	179.397	107.581	-68.2308	171.147	87.1813	-108.871	160.266	110.963	-92.3697	170.029	95.4502	-61.1157	155.885	77.5472	-107.62	147.249	101.574	-88.9562	159.93	90.6759	-62.041	143.935	49.5237	-103.209	133.267	58.3354	-120.622	118.502	63.266	-143.526	178.152	36.9688	-68.4116	181.054	35.1619	-37.6461	205.085	52.1828	-57.1167	
242	2.01667	215.454	82.4934	-44.151	215.536	103.561	-61.8669	225.47	120.427	-81.3021	228.298	129.445	-97.8304	203.948	88.1654	-108.815	183.376	112.131	-101.162	184.369	99.5756	-69.4324	179.657	79.4842	-109.011	169.808	105.746	-91.7301	177.21	91.0215	-61.9867	164.836	68.9801	-107.816	156.348	96.1906	-93.9355	168.479	84.1262	-62.1912	152.317	42.6483	-102.849	140.668	50.8692	-125.25	131.159	55.3625	-148.09	184.656	34.9688	-70.0199	184.819	29.2778	-36.2896	211.353	47.7771	-50.7632	
243	2.025	222.247	78.7975	-37.8661	224.293	99.5003	-58.685	233.242	112.139	-81.3323	241.425	124.012	-96.5363	209.418	83.6087	-111.157	194.009	106.178	-102.006	193.489	95.5704	-69.8389	190.131	71.0694	-108.835	175.753	97.9124	-96.6442	186.165	85.9792	-61.9485	175.81	64.7504	-109.542	166.6	89.6379	-97.7345	175.494	84.1299	-66.664	164.399	38.4	-104.722	154.115	44.5442	-126.687	144.35	49.1406	-145.406	188.896	26.6015	-69.5341	189.979	26.2398	-36.446	219.022	43.0095	-50.191	
244	2.03333	227.328	74.4385	-34.8998	230.537	92.9605	-59.0821	243.126	106.603	-81.3927	251.867	117.024	-95.5345	220.765	73.2365	-108.229	203.528	97.6392	-102.435	204.039	86.9688	-69.1432	204.695	64.5528	-108.776	186.573	89.4934	-97.2966	196.17	79.6194	-62.1464	185.918	55.0349	-110.918	172.814	80.5249	-100.363	185.169	76.4192	-65.36	174.33	27.8598	-104.148	168.041	34.289	-126.499	156.956	39.697	-151.74	201.935	20.8964	-63.2868	196.535	21.5819	-32.9833	227.124	38.6484	-49.606	
245	2.04167	236.276	68.4151	-32.1257	241.472	86.5421	-56.3932	252.469	97.733	-74.4519	261.314	108.041	-93.2757	237.788	63.1999	-103.773	221.006	88.7253	-104.65	214.015	78.1228	-70.0464	216.849	54.7905	-109.012	200.918	79.6977	-99.9886	203.894	75.7123	-64.0257	200.546	43.3315	-109.772	189.641	71.8322	-100.515	192.355	69.024	-69.1016	189.571	17.2861	-106.927	185.737	23.5205	-126.046	179.78	28.1915	-150.997	213.77	13.8431	-63.9122	208.076	14.7333	-29.1564	237.102	33.6029	-41.7304	
246	2.05	244.104	67.6216	-31.0929	249.068	84.7817	-53.9755	258.921	94.7958	-73.1346	269.971	103.908	-92.765	249.114	59.3775	-100.732	228.049	83.602	-101.609	220.347	76.6694	-70.9009	229.729	49.814	-107.537	209.296	72.4338	-99.0292	215.237	68.8899	-62.0317	219.709	38.852	-107.337	198.809	63.2878	-100.507	201.892	60.2624	-67.598	207.801	10.5771	-103.125	203.796	13.4497	-122.782	198.504	18.4355	-153.066	225.018	6.39395	-59.3202	216.993	9.64465	-27.2235	246.896	31.9034	-36.7958	
247	2.05833	247.283	69.0895	-27.6968	253.63	85.6676	-50.3868	265.077	96.4489	-70.2378	276.032	106.11	-86.2029	261.193	60.3624	-96.1664	235.525	78.7624	-99.5568	229.436	73.1535	-66.7198	244.094	47.2701	-102.146	220.199	68.1487	-97.3237	220.352	65.6261	-62.2351	229.51	34.0539	-107.549	208.383	53.6778	-99.319	211.866	52.7745	-65.4425	224.366	1.64496	-102.385	223.38	6.72152	-123.811	215.823	10.515	-149.251	236.217	6.2187	-51.8885	228.651	11.002	-24.4745	256.169	32.0083	-33.8081	
248	2.06667	246.41	68.5813	-25.3438	253.551	85.1582	-45.7499	269.265	95.8955	-67.5853	279.775	106.349	-83.3799	268.926	59.9722	-91.6512	243.337	72.0025	-99.5393	232.05	67.2384	-68.1732	252.219	43.4081	-99.6466	228.96	62.8127	-95.5699	225.207	59.4789	-60.0863	245.097	29.158	-99.7667	223.277	47.975	-100.163	221.016	47.1206	-63.7677	241.96	-2.45659	-94.7082	241.226	-0.0525668	-118.808	236.851	2.82175	-148.195	249.431	5.38949	-46.1338	234.646	5.12044	-18.8699	258.859	33.0253	-28.7469	
